<?xml version="1.0" encoding="UTF-8"?>
<svg xmlns="http://www.w3.org/2000/svg" width="124.388mm" height="32mm" version="1.1" viewBox="0 0 352.596 90.708">
  <!-- Generator: Adobe Illustrator 29.5.1, SVG Export Plug-In . SVG Version: 2.1.0 Build 141)  -->
  <g id="Schutzraum">
    <rect y="0" width="352.596" height="90.709" fill="none"/>
    <rect y="0" width="352.596" height="90.709" fill="none"/>
    <rect y="0" width="352.596" height="90.709" fill="none"/>
    <rect y="0" width="352.596" height="90.709" fill="none"/>
    <rect y="0" width="352.596" height="90.709" fill="none"/>
  </g>
  <g id="Logo">
    <g>
      <path d="M277.779,67.852h4.345v-9.113h2.323c1.75,0,2.505,1.026,2.565,2.716l.12,4.135c.03.844.121,1.658.543,2.263h4.707v-.181c-.814-.424-.935-1.6-.965-3.862-.061-4.557-.514-6.188-3.47-6.579v-.06c2.443-.514,3.591-2.444,3.591-5.311,0-3.682-2.173-5.553-5.734-5.553h-8.025v21.546ZM282.124,49.505h2.052c1.961,0,3.018.996,3.018,2.987,0,2.323-1.178,3.228-3.26,3.228h-1.81v-6.216Z" fill="#8ebae5"/>
      <path d="M213.716,46.307v15.027c0,5.764,3.349,6.941,6.88,6.941s6.88-1.448,6.88-6.941v-15.027h-4.345v15.027c0,2.143-.514,3.742-2.535,3.742s-2.535-1.6-2.535-3.742v-15.027h-4.345Z" fill="#8ebae5"/>
    </g>
    <polygon points="228.539 46.307 228.539 67.851 232.522 67.851 232.522 52.764 232.582 52.764 237.894 67.851 242.843 67.851 242.843 46.307 238.859 46.307 238.859 61.062 238.799 61.062 233.548 46.307 228.539 46.307" fill="#8ebae5"/>
    <rect x="243.959" y="46.307" width="4.345" height="21.544" fill="#8ebae5"/>
    <polygon points="248.602 46.307 253.551 67.851 259.134 67.851 264.082 46.307 259.586 46.307 256.388 62.24 256.298 62.24 253.25 46.307 248.602 46.307" fill="#8ebae5"/>
    <polygon points="264.47 46.307 264.47 67.851 276.811 67.851 276.811 64.292 268.814 64.292 268.814 58.498 276.058 58.498 276.058 54.936 268.814 54.936 268.814 49.868 276.51 49.868 276.51 46.307 264.47 46.307" fill="#8ebae5"/>
    <path d="M291.899,61.123v.875c0,3.984,1.931,6.277,6.85,6.277,4.707,0,7.483-2.052,7.483-6.609,0-2.625-.846-4.284-4.104-5.703l-3.349-1.447c-1.841-.785-2.233-1.6-2.233-2.928,0-1.267.514-2.505,2.475-2.505,1.659,0,2.354,1.177,2.354,3.199h4.164v-.605c0-4.134-2.807-5.792-6.669-5.792-4.103,0-6.668,2.142-6.668,6.335,0,3.592,1.78,5.191,5.642,6.519,2.867.996,3.863,1.72,3.863,3.682,0,1.811-1.268,2.655-2.595,2.655-2.294,0-2.867-1.297-2.867-3.319v-.634h-4.345Z" fill="#8ebae5"/>
    <rect x="306.8" y="46.307" width="4.345" height="21.544" fill="#8ebae5"/>
    <polygon points="333.715 46.307 330.697 54.634 330.637 54.634 327.801 46.307 311.715 46.307 311.715 49.868 316.422 49.868 316.422 67.851 320.768 67.851 320.768 49.868 324.433 49.868 328.494 59.373 328.494 67.851 332.84 67.851 332.84 59.373 338.423 46.307 333.715 46.307" fill="#8ebae5"/>
    <g>
      <path d="M175.544,44.347h-7.2v-21.641h11.807c3.202,0,5.963,2.072,6.864,4.82.834,2.546.12,5.312-1.762,7.281.25.678.494,1.209.727,1.818.522,1.205,1.001,2.41,1.523,3.6l1.713,4.122h-7.301s-.058-.174-.116-.247c-.29-.638-.552-1.321-.842-1.959l-1.756-4.166c-.697-1.684-1.393-3.275-2.09-4.958.869-.024,1.519.139,2.357-.247.591-.29,1.484-1.011,1.508-2.394-.023-.685-.213-1.204-.666-1.744-.455-.502-1.113-.874-1.971-.886,0,0-2.798,0-2.796,0v16.601Z" fill="#00549f"/>
      <path d="M250.75,22.706v21.641h-7.2v-8.824h-5.041v8.824c-1.306,0-2.714-.014-4.019,0h-3.181v-16.633h-5.036v16.633h-7.199v-16.633h-5.079v16.633h-7.417c-1.292-3.12-2.656-6.27-3.919-9.376-.145-.653-.29-1.307-.479-1.945v11.321h-7.432c-1.474-3.425-2.889-6.782-4.357-10.258-.509-1.204-.926-2.184-1.452-3.436l-.071-.164-1.144-2.685-1.638-3.835c-.145-.435-.376-.828-.523-1.263h7.415c1.524,3.701,3.062,7.359,4.659,11.002l.044.087c-.058-.421-.189-.958-.262-1.364v-6.459c.014-1.031,0-2.207,0-3.266h7.431c.094.236.146.363.218.552.871,2.046,1.699,4.078,2.57,6.11l1.945,4.427c-.044-.465-.147-.914-.204-1.364v-9.725h29.131v7.809h5.041v-7.809h7.2Z" fill="#00549f"/>
    </g>
    <path d="M271.635,36.192l2.092-9.73h.059l2.093,9.73h-4.244ZM257.207,36.192l2.092-9.73h.06l2.092,9.73h-4.243ZM276.454,22.704h-5.395l-4.516,17.059-4.517-17.059h-5.395l-5.729,21.643h4.547l1-4.577h5.761l1,4.577h6.668l1-4.577h5.76l1,4.577h4.547l-5.729-21.643Z" fill="#8ebae5"/>
    <path d="M295.183,30.088c0-3.138-.451-7.695-6.669-7.695-6.517,0-7.333,4.647-7.333,11.195s.816,11.195,7.333,11.195c5.703,0,6.851-4.013,6.851-8.66h-4.346c0,4.647-1.146,5.462-2.716,5.462-1.871,0-2.775-1.177-2.775-7.695,0-6.095.513-8.298,2.716-8.298,1.961,0,2.595,1.358,2.595,4.496h4.345Z" fill="#8ebae5"/>
    <polygon points="296.223 44.347 300.586 44.347 300.586 34.739 305.679 34.739 305.679 44.347 310.043 44.347 310.043 22.706 305.679 22.706 305.679 30.981 300.586 30.981 300.586 22.706 296.223 22.706 296.223 44.347" fill="#8ebae5"/>
    <polygon points="310.989 22.702 310.989 44.347 323.39 44.347 323.39 40.77 315.355 40.77 315.355 34.949 322.632 34.949 322.632 31.372 315.355 31.372 315.355 26.279 323.086 26.279 323.086 22.702 310.989 22.702" fill="#8ebae5"/>
    <polygon points="324.037 22.706 324.037 44.347 328.038 44.347 328.038 29.192 328.099 29.192 333.434 44.347 338.404 44.347 338.404 22.706 334.403 22.706 334.403 37.527 334.342 37.527 329.068 22.706 324.037 22.706" fill="#8ebae5"/>
    <rect x="153.671" y="22.676" width="1" height="45.355" fill="#00549f"/>
    <g>
      <path d="M38.68,52.64c0,.264-.213.478-.477.478s-.477-.214-.477-.478.214-.477.477-.477.477.214.477.477M37.492,55.303c.218,0,.395.177.395.395s-.177.396-.395.396-.395-.177-.395-.396.177-.395.395-.395M37.258,40.552c0,.264-.213.478-.477.478s-.477-.214-.477-.478.213-.477.477-.477.477.214.477.477M36.323,56.967c0,.218-.177.395-.395.395s-.395-.177-.395-.395.176-.395.395-.395.395.178.395.395M36.386,54.774c0-.219.177-.395.395-.395s.395.176.395.395-.177.396-.395.396-.395-.178-.395-.396M36.496,56.043c0-.197.16-.356.356-.356s.356.159.356.356c0,.195-.16.355-.356.355s-.356-.159-.356-.355M36.872,59.1c0-.263.214-.477.478-.477.263,0,.477.214.477.477s-.214.477-.477.477c-.264,0-.478-.213-.478-.477M44.754,37.848c-.172-.474-.605-.819-1.139-.819-.442,0-.811.244-1.027.594.009-.001.014-.01.024-.01.17,0,.308.138.308.308,0,.112-.07.193-.159.247.059.069.104.153.104.251,0,.218-.177.395-.396.395-.218,0-.395-.177-.395-.395,0-.085.033-.157.082-.216H14.173v4.93h6.517v24.898h6.016v-24.898h6.58v24.898h6.016v-24.898h6.517v-3.126c-.114.035-.229.071-.355.071-.685,0-1.241-.555-1.241-1.24,0-.415.218-.765.531-.99" fill="#00549f"/>
      <path d="M42.527,35.679c0-.341-.277-.618-.618-.618s-.617.277-.617.618.276.617.617.617.618-.276.618-.617M45.19,31.671c0-.446-.362-.807-.807-.807s-.807.361-.807.807.361.806.807.806.807-.361.807-.806M47.91,36.15c0-.483-.391-.875-.874-.875s-.875.392-.875.875.392.875.875.875.874-.392.874-.875M49.762,31.411c0-.55-.446-.996-.995-.996s-.996.446-.996.996.446.996.996.996.995-.446.995-.996M51.192,31.45c-1.1,0-1.991.892-1.991,1.991s.891,1.991,1.991,1.991,1.991-.891,1.991-1.991-.891-1.991-1.991-1.991M53.61,37.812c0-.286-.137-.531-.341-.7.288-.101.496-.368.496-.69,0-.408-.33-.739-.738-.739s-.739.331-.739.739c0,.197.08.373.205.506-.414.091-.729.442-.729.884,0,.51.413.923.923.923s.923-.413.923-.923M51.927,29.606c0-.483-.392-.874-.875-.874s-.874.391-.874.874.391.875.874.875.875-.392.875-.875M53.309,24.142c-.685,0-1.24.556-1.24,1.241s.555,1.24,1.24,1.24,1.241-.555,1.241-1.24-.555-1.241-1.241-1.241M57.434,21.827c0-1.099-.892-1.991-1.991-1.991s-1.991.892-1.991,1.991.891,1.991,1.991,1.991,1.991-.891,1.991-1.991M55.738,29.92c.065,0,.122-.024.182-.037,0,.013-.007.024-.007.037,0,.483.391.874.874.874s.875-.391.875-.874-.391-.875-.875-.875c-.064,0-.121.024-.182.037.001-.013.008-.024.008-.037,0-.483-.392-.875-.875-.875s-.875.392-.875.875.392.875.875.875M55.844,32.571c0,.341.276.617.617.617s.618-.276.618-.617-.277-.618-.618-.618-.617.277-.617.618M57.191,28.929c.341,0,.618-.276.618-.617s-.277-.618-.618-.618-.617.276-.617.618.276.617.617.617M60.42,22.53c-1.575,0-2.852,1.277-2.852,2.853s1.277,2.852,2.852,2.852,2.852-1.277,2.852-2.852-1.277-2.853-2.852-2.853M61.566,33.188c-.55,0-.996.446-.996.996s.446.995.996.995.995-.445.995-.995-.445-.996-.995-.996M64.15,20.454c0-.341-.276-.618-.617-.618s-.618.277-.618.618c0,.035.015.064.02.098-.154-.136-.351-.226-.574-.226-.483,0-.874.392-.874.874s.391.875.874.875.875-.392.875-.875c0-.088-.026-.169-.05-.25.1.071.215.121.347.121.341,0,.617-.276.617-.617M64.68,32.959c0-.323-.209-.589-.496-.69.204-.17.341-.415.341-.7,0-.51-.413-.923-.923-.923s-.923.413-.923.923c0,.441.315.793.729.884-.125.133-.205.309-.205.506,0,.407.331.738.739.738s.738-.331.738-.738M49.975,46.454c0,.171-.123.291-.276.346.024.05.063.092.063.151,0,.219-.177.394-.395.394s-.395-.176-.395-.394c0-.172.123-.292.276-.346-.023-.051-.063-.093-.063-.152,0-.218.177-.396.395-.396.219,0,.395.178.395.396M65.204,38.203c-.051-.65-.579-1.166-1.242-1.166-.697,0-1.262.565-1.262,1.261,0,.002.001.004.001.005-.064.625-.572,1.12-1.214,1.12-.449,0-.823-.251-1.04-.608.733-.294,1.253-1.004,1.253-1.842,0-1.1-.891-1.991-1.991-1.991s-1.991.891-1.991,1.991.892,1.991,1.991,1.991c.256,0,.496-.057.721-.145.211.306.346.666.346,1.069,0,1.1-.892,1.992-1.991,1.992-.496,0-.936-.2-1.285-.5l-5.582,8.77h-.083v-1.93c-.042.015-.074.05-.121.05-.219,0-.396-.177-.396-.395,0-.22.177-.396.396-.396.047,0,.079.035.121.05v-7.965c-.039.007-.073.023-.114.023-.393,0-.707-.306-.738-.692-.081.03-.166.053-.257.053-.413,0-.746-.334-.749-.746h-1.069c-.073.273-.308.478-.602.488-.084.466-.472.826-.962.826-.275,0-.524-.112-.705-.293-.127.376-.435.665-.82.783v28.024h6.016v-8.856l2.214-3.384,6.141,12.24h6.768l-9.024-17.045.271-.427c-.072-.104-.123-.225-.123-.361,0-.362.293-.655.655-.655.036,0,.066.014.1.02l6.323-9.973c-.064-.101-.11-.213-.11-.341,0-.223.119-.411.289-.529-.077-.099-.119-.22-.13-.351.001-.025.014-.045.014-.071,0-.022-.012-.04-.013-.063.003-.01.005-.021.007-.032h-.013ZM66.82,33.56c-1.1,0-1.991.891-1.991,1.991s.891,1.991,1.991,1.991,1.991-.892,1.991-1.991-.891-1.991-1.991-1.991M68.953,24.824c0-.483-.391-.875-.874-.875s-.875.392-.875.875.391.875.875.875.874-.392.874-.875" fill="#8ebae5"/>
      <path d="M133.414,69.792h.56c.32,0,.585-.023.795-.07.21-.047.39-.144.54-.295s.3-.417.45-.8c.15-.383.245-.702.285-.955l1.3-5.021h-1.38l-.7,3.721h-.02l-.8-3.721h-1.44l1.51,5.381c-.02.239-.085.427-.195.56-.11.133-.291.2-.545.2-.12,0-.24-.01-.36-.03v1.03ZM131.046,62.651v.601h-.02c-.133-.28-.303-.474-.51-.58-.206-.107-.407-.16-.6-.16-.373,0-.671.083-.895.25-.223.167-.393.382-.51.646-.117.263-.193.558-.23.885-.036.327-.055.646-.055.96,0,.979.139,1.678.415,2.095.277.417.688.625,1.235.625.22,0,.432-.06.635-.18.204-.12.375-.28.515-.48h.02v.71c0,.28-.056.513-.17.695-.113.183-.31.275-.59.275-.087,0-.168-.014-.245-.04-.076-.027-.148-.064-.215-.11-.14-.1-.21-.237-.21-.41h-1.32c0,.46.158.815.475,1.065s.769.375,1.355.375c.807,0,1.382-.172,1.725-.516.344-.343.515-.875.515-1.595v-5.11h-1.32ZM129.632,64.596c.017-.25.052-.45.105-.6.054-.15.127-.258.22-.325.093-.067.217-.1.37-.1.274,0,.462.137.565.409.104.273.155.737.155,1.391,0,.227-.012.435-.035.625-.023.189-.063.352-.12.484-.056.134-.133.238-.23.315-.097.077-.218.115-.365.115-.146,0-.265-.038-.355-.115-.09-.077-.16-.18-.21-.311-.05-.13-.083-.277-.1-.444-.016-.167-.025-.343-.025-.53,0-.36.009-.665.025-.915M124.697,64.581c.014-.233.045-.433.095-.601.05-.167.124-.297.22-.39.097-.093.232-.14.405-.14.28,0,.474.146.58.439.107.293.16.777.16,1.45s-.053,1.157-.16,1.45c-.106.293-.3.439-.58.439-.173,0-.308-.047-.405-.14-.096-.093-.17-.223-.22-.39-.05-.167-.081-.367-.095-.601-.013-.232-.02-.486-.02-.76s.007-.527.02-.76M123.396,66.581c.067.353.18.649.34.89.16.24.377.418.65.535.274.117.617.172,1.03.165.394,0,.725-.062.995-.186.27-.122.489-.303.655-.539.167-.237.287-.532.36-.886.074-.353.11-.76.11-1.22,0-.467-.033-.878-.1-1.235-.066-.356-.18-.654-.34-.895-.16-.24-.376-.418-.65-.535-.273-.117-.616-.172-1.03-.165-.393,0-.725.062-.995.186-.27.122-.488.303-.655.539-.166.237-.286.532-.36.886-.073.353-.11.76-.11,1.22,0,.473.034.887.1,1.24M121.067,68.032h1.38v-7.141h-1.38v7.141ZM117.39,64.581c.014-.233.045-.433.095-.601.05-.167.124-.297.22-.39.097-.093.232-.14.405-.14.28,0,.474.146.58.439.107.293.16.777.16,1.45s-.053,1.157-.16,1.45c-.106.293-.3.439-.58.439-.173,0-.308-.047-.405-.14-.096-.093-.17-.223-.22-.39-.05-.167-.081-.367-.095-.601-.013-.232-.02-.486-.02-.76s.007-.527.02-.76M116.089,66.581c.067.353.18.649.34.89.16.24.377.418.65.535.274.117.617.172,1.03.165.394,0,.725-.062.995-.186.27-.122.489-.303.655-.539.167-.237.287-.532.36-.886.074-.353.11-.76.11-1.22,0-.467-.033-.878-.1-1.235-.066-.356-.18-.654-.34-.895-.16-.24-.376-.418-.65-.535-.273-.117-.616-.172-1.03-.165-.393,0-.725.062-.995.186-.27.122-.488.303-.655.539-.166.237-.286.532-.36.886-.073.353-.11.76-.11,1.22,0,.473.034.887.1,1.24M108.518,68.032h1.38v-3.54c0-.32.065-.554.195-.7.13-.148.305-.22.525-.22.194,0,.332.06.415.18.084.12.125.293.125.52v3.761h1.38v-3.54c0-.32.065-.554.195-.7.13-.148.305-.22.525-.22.194,0,.332.06.415.18.084.12.125.293.125.52v3.761h1.38v-3.91c0-.521-.108-.918-.325-1.195-.216-.277-.555-.415-1.015-.415-.326,0-.608.072-.845.215-.236.144-.408.358-.515.646h-.02c-.073-.28-.218-.493-.435-.641-.216-.146-.485-.22-.805-.22-.3,0-.558.053-.775.16-.216.106-.411.283-.585.53h-.02v-.551h-1.32v5.381ZM103.787,66.271v.19c0,.26.03.495.09.705.06.21.165.39.315.54.15.149.351.265.605.345.253.08.576.12.97.12.286,0,.553-.035.8-.105.246-.069.458-.175.635-.314.176-.141.315-.317.415-.53s.15-.46.15-.74c0-.406-.09-.728-.27-.965s-.487-.428-.92-.575l-.83-.279c-.234-.073-.392-.163-.475-.271-.084-.106-.125-.227-.125-.359,0-.193.065-.339.195-.436.13-.097.281-.144.455-.144.226,0,.385.064.475.194.09.13.135.335.135.615h1.24v-.22c0-.487-.15-.863-.45-1.13-.3-.268-.764-.4-1.39-.4-.354,0-.655.043-.905.13s-.455.203-.615.351c-.16.147-.277.317-.35.515-.074.197-.11.405-.11.625,0,.38.096.692.29.935.193.243.48.433.86.565l.97.35c.133.054.25.125.35.216.1.09.15.222.15.394,0,.213-.064.373-.19.481-.127.106-.297.159-.51.159-.234,0-.412-.071-.535-.215-.124-.143-.185-.332-.185-.564v-.181h-1.24ZM100.359,64.581c.013-.233.045-.433.095-.601s.123-.297.22-.39c.096-.093.231-.14.405-.14.28,0,.473.146.58.439.106.293.16.777.16,1.45s-.054,1.157-.16,1.45c-.107.293-.3.439-.58.439-.174,0-.309-.047-.405-.14-.097-.093-.17-.223-.22-.39s-.082-.367-.095-.601c-.014-.232-.02-.486-.02-.76s.006-.527.02-.76M99.06,66.581c.066.353.18.649.34.89.16.24.376.418.65.535.273.117.616.172,1.03.165.393,0,.725-.062.995-.186.27-.122.488-.303.655-.539.166-.237.286-.532.36-.886.073-.353.11-.76.11-1.22,0-.467-.034-.878-.1-1.235-.067-.356-.18-.654-.34-.895-.16-.24-.377-.418-.65-.535-.274-.117-.617-.172-1.03-.165-.394,0-.725.062-.995.186-.27.122-.489.303-.655.539-.167.237-.287.532-.36.886-.074.353-.11.76-.11,1.22,0,.473.033.887.1,1.24M98.208,63.301c0-.26-.019-.538-.055-.835-.037-.297-.129-.573-.275-.83-.147-.257-.369-.468-.665-.635-.297-.167-.702-.25-1.215-.25-.54,0-.97.092-1.29.274-.32.184-.565.439-.735.766-.17.327-.28.718-.33,1.175s-.075.955-.075,1.495.025,1.038.075,1.495c.05.457.16.848.33,1.175.17.327.415.582.735.765.32.184.75.275,1.29.275.473,0,.858-.077,1.155-.23.296-.152.526-.361.69-.625.163-.263.275-.567.335-.915.06-.347.09-.713.09-1.1h-1.44c0,.387-.024.698-.07.934-.047.237-.11.421-.19.551-.08.13-.175.217-.285.26s-.229.064-.355.064c-.154,0-.289-.031-.405-.095-.117-.062-.214-.186-.29-.37-.077-.183-.134-.441-.17-.774-.037-.333-.055-.771-.055-1.311,0-.507.013-.935.04-1.285.026-.35.073-.633.14-.85.066-.217.158-.373.275-.47.116-.098.265-.145.445-.145.326,0,.551.118.675.355.123.236.185.615.185,1.135h1.44ZM87.664,64.016c.09-.297.285-.444.585-.444.306,0,.505.147.595.444.09.297.135.738.135,1.325s-.045,1.028-.135,1.325c-.09.297-.289.444-.595.444-.3,0-.495-.147-.585-.444-.09-.297-.135-.738-.135-1.325s.045-1.028.135-1.325M89.039,68.032h1.32v-7.141h-1.38v2.26h-.02c-.147-.213-.312-.373-.495-.479-.184-.107-.405-.16-.665-.16-.567,0-.984.222-1.25.665-.267.443-.4,1.165-.4,2.165s.133,1.722.4,2.165c.266.443.683.665,1.25.665.28,0,.515-.055.705-.165.19-.11.361-.292.515-.545h.02v.57ZM81.214,68.032h1.38v-3.57c0-.593.243-.89.73-.89.206,0,.356.055.45.164.093.11.14.306.14.586v3.71h1.38v-3.99c0-.54-.119-.931-.355-1.17-.237-.24-.575-.36-1.015-.36-.3,0-.567.062-.8.186-.234.122-.424.317-.57.585h-.02v-.631h-1.32v5.381ZM78.889,66.401c0,.153-.027.282-.08.386-.053.103-.122.188-.205.255-.083.066-.175.115-.275.145-.1.03-.197.045-.29.045-.187,0-.32-.072-.4-.22-.08-.147-.12-.323-.12-.53,0-.239.06-.43.18-.569.12-.141.32-.24.6-.301.087-.02.183-.052.29-.095.107-.043.207-.102.3-.175v1.06ZM77.608,64.301v-.15c0-.213.053-.383.16-.51.107-.127.267-.189.48-.189.233,0,.398.058.495.175.097.117.145.277.145.484,0,.181-.04.317-.12.41-.08.094-.223.167-.43.221l-.78.21c-.24.066-.445.142-.615.229-.17.087-.31.195-.42.325-.11.13-.192.287-.245.47-.053.184-.08.402-.08.655,0,.18.023.362.07.545.047.183.12.348.22.495.1.146.233.267.4.36.167.093.37.14.61.14.333,0,.605-.047.815-.14.21-.094.395-.28.555-.561h.02c.02.093.042.189.065.285.023.097.058.188.105.275h1.32c-.067-.16-.112-.311-.135-.45-.023-.141-.035-.337-.035-.59v-2.83c0-.24-.025-.462-.075-.665-.05-.203-.145-.378-.285-.525-.14-.146-.338-.26-.595-.34-.257-.08-.588-.12-.995-.12-.26,0-.505.028-.735.085-.23.057-.43.15-.6.28-.17.13-.305.302-.405.515s-.15.474-.15.78v.13h1.24Z" fill="#00549f"/>
      <path d="M136.018,54.933v.19c0,.26.03.495.09.705.06.21.165.391.315.54.15.15.351.265.605.345.253.08.576.12.97.12.286,0,.553-.035.8-.104.246-.07.458-.175.635-.315.176-.14.315-.316.415-.53.1-.213.15-.46.15-.739,0-.407-.09-.729-.27-.965-.18-.237-.487-.429-.92-.575l-.83-.28c-.234-.073-.392-.163-.475-.27-.084-.107-.125-.227-.125-.36,0-.193.065-.338.195-.436.13-.097.281-.145.454-.145.226,0,.385.065.475.195.09.13.135.335.135.614h1.24v-.22c0-.487-.15-.863-.45-1.13-.3-.267-.764-.4-1.39-.4-.354,0-.655.043-.905.131-.25.087-.455.202-.615.35-.16.147-.277.318-.35.515-.074.197-.11.405-.11.625,0,.38.096.692.29.935.193.243.48.432.86.565l.97.351c.133.053.25.125.35.215.1.09.15.222.15.395,0,.213-.064.373-.19.48-.127.106-.297.16-.51.16-.234,0-.412-.072-.535-.215-.124-.144-.185-.332-.185-.565v-.18h-1.24ZM135.421,53.252c0-.64-.162-1.146-.485-1.52-.324-.373-.805-.56-1.445-.56-.32,0-.614.043-.88.131-.267.087-.497.237-.69.454-.194.218-.344.508-.45.87-.107.363-.16.822-.16,1.375,0,.54.043.992.13,1.355.086.363.215.653.385.87.17.217.383.372.64.465.256.093.558.14.905.14.733,0,1.258-.189,1.575-.569.316-.381.475-.924.475-1.631h-1.32c0,.44-.054.761-.16.961-.107.199-.277.3-.51.3-.154,0-.279-.035-.375-.105-.097-.069-.172-.182-.225-.335-.054-.153-.09-.348-.11-.585s-.03-.522-.03-.854c0-.308.01-.577.03-.811.02-.232.056-.425.11-.575.053-.149.131-.263.235-.34.103-.077.241-.115.415-.115.126,0,.231.032.315.096.083.062.146.146.19.25.043.102.073.22.09.35.016.13.025.258.025.385h1.32ZM129.093,56.693h1.38v-5.38h-1.38v5.38ZM129.093,50.653h1.38v-1.18h-1.38v1.18ZM124.326,54.933v.19c0,.26.03.495.09.705.06.21.165.391.315.54.15.15.352.265.605.345.253.08.577.12.97.12.287,0,.553-.035.8-.104.247-.07.458-.175.635-.315.177-.14.315-.316.415-.53.1-.213.15-.46.15-.739,0-.407-.09-.729-.27-.965-.18-.237-.487-.429-.92-.575l-.83-.28c-.233-.073-.392-.163-.475-.27-.083-.107-.125-.227-.125-.36,0-.193.065-.338.195-.436.13-.097.282-.145.455-.145.227,0,.385.065.475.195.09.13.135.335.135.614h1.24v-.22c0-.487-.15-.863-.45-1.13-.3-.267-.763-.4-1.39-.4-.353,0-.655.043-.905.131-.25.087-.455.202-.615.35-.16.147-.277.318-.35.515-.073.197-.11.405-.11.625,0,.38.097.692.29.935.193.243.48.432.86.565l.97.351c.133.053.25.125.35.215.1.09.15.222.15.395,0,.213-.063.373-.19.48-.127.106-.297.16-.51.16-.233,0-.412-.072-.535-.215-.123-.144-.185-.332-.185-.565v-.18h-1.24ZM120.054,58.453h.56c.32,0,.585-.022.795-.07.21-.047.39-.145.54-.295.15-.149.3-.417.45-.8.15-.383.245-.702.285-.955l1.3-5.02h-1.38l-.7,3.72h-.02l-.8-3.72h-1.44l1.51,5.38c-.02.24-.085.427-.195.56-.11.134-.291.2-.545.2-.12,0-.24-.01-.36-.03v1.03ZM115.063,56.693h1.38v-3.57c0-.593.244-.89.73-.89.207,0,.357.055.45.165.094.109.14.305.14.585v3.71h1.38v-3.99c0-.54-.118-.93-.355-1.17-.236-.24-.575-.36-1.015-.36-.606,0-1.043.23-1.31.69h-.02v-2.31h-1.38v7.14ZM109.852,56.693h1.44v-2.85h.77c.34,0,.65-.044.93-.131.28-.087.519-.217.715-.39.197-.173.35-.395.46-.665.11-.269.165-.592.165-.965,0-.267-.033-.528-.1-.785-.066-.257-.176-.485-.33-.685-.153-.2-.355-.362-.605-.485-.25-.123-.558-.185-.925-.185h-2.52v7.14ZM111.291,50.613h.6c.36,0,.617.093.77.28.154.186.23.46.23.819,0,.367-.088.638-.265.811-.176.173-.408.26-.695.26h-.64v-2.17ZM103.961,53.393v-.21c0-.127.012-.253.035-.38.024-.127.062-.242.115-.346.054-.102.125-.186.215-.25.09-.062.205-.095.345-.095s.255.028.345.085c.09.057.16.14.21.25.05.11.085.243.105.4.02.156.034.338.04.545h-1.41ZM106.691,54.212v-.31c0-.413-.026-.788-.08-1.125-.053-.337-.153-.623-.3-.86-.146-.236-.348-.42-.605-.55-.256-.13-.585-.195-.985-.195-.466,0-.84.077-1.12.23-.28.153-.495.36-.645.62-.15.26-.25.557-.3.89-.05.333-.075.681-.075,1.04,0,.333.015.672.045,1.016.03.343.112.652.245.93.134.276.34.502.62.675.28.173.67.26,1.17.26.66,0,1.144-.168,1.45-.505.307-.337.474-.817.5-1.445h-1.24c-.04.341-.113.594-.22.761-.106.167-.276.25-.51.25-.126,0-.233-.035-.32-.105-.086-.069-.156-.163-.21-.28-.053-.116-.091-.25-.115-.399-.023-.15-.035-.305-.035-.465v-.431h2.73ZM100.353,56.693h1.38v-7.14h-1.38v7.14ZM99.531,53.252c0-.64-.162-1.146-.485-1.52-.324-.373-.805-.56-1.445-.56-.32,0-.614.043-.88.131-.267.087-.497.237-.69.454-.194.218-.344.508-.45.87-.107.363-.16.822-.16,1.375,0,.54.043.992.13,1.355.086.363.215.653.385.87.17.217.383.372.64.465.256.093.558.14.905.14.733,0,1.258-.189,1.575-.569.316-.381.475-.924.475-1.631h-1.32c0,.44-.054.761-.16.961-.107.199-.277.3-.51.3-.154,0-.279-.035-.375-.105-.097-.069-.172-.182-.225-.335-.054-.153-.09-.348-.11-.585-.02-.237-.03-.522-.03-.854,0-.308.01-.577.03-.811.02-.232.056-.425.11-.575.053-.149.131-.263.235-.34.103-.077.241-.115.415-.115.126,0,.231.032.315.096.083.062.146.146.19.25.043.102.073.22.09.35.016.13.025.258.025.385h1.32ZM93.202,56.693h1.38v-5.38h-1.38v5.38ZM93.202,50.653h1.38v-1.18h-1.38v1.18ZM90.362,51.313h-.7v.939h.7v3.08c0,.273.016.5.05.681.033.18.095.324.185.435.09.11.218.188.385.235.166.047.386.069.66.069.16,0,.311-.007.455-.02.143-.013.291-.027.445-.04v-.96c-.047.007-.097.012-.15.015-.054.003-.107.005-.16.005-.2,0-.332-.045-.395-.135-.064-.09-.095-.242-.095-.455v-2.91h.8v-.939h-.8v-1.54h-1.38v1.54ZM86.433,56.693h1.38v-3.23c0-.18.03-.332.09-.455.06-.122.14-.223.24-.3.1-.077.21-.132.33-.165.12-.032.24-.05.36-.05.073,0,.145.002.215.005.07.003.141.008.215.016v-1.32c-.04-.007-.082-.012-.125-.015-.044-.004-.085-.006-.125-.006-.287,0-.53.078-.73.235-.2.157-.37.365-.51.625h-.02v-.72h-1.32v5.38ZM84.106,55.063c0,.152-.027.282-.08.385-.053.104-.122.188-.205.255-.083.067-.175.115-.275.146-.1.029-.197.045-.29.045-.187,0-.32-.073-.4-.221-.08-.147-.12-.322-.12-.529,0-.24.06-.431.18-.57.12-.14.32-.24.6-.3.087-.021.183-.052.29-.095.107-.043.207-.102.3-.176v1.061ZM82.827,52.962v-.149c0-.213.053-.383.16-.51.107-.127.267-.19.48-.19.233,0,.398.058.495.175.097.117.145.278.145.485,0,.18-.04.316-.12.41-.08.093-.223.167-.43.22l-.78.21c-.24.067-.445.143-.615.23-.17.087-.31.194-.42.324s-.192.287-.245.471c-.053.183-.08.401-.08.654,0,.181.023.362.07.545.047.184.12.349.22.495.1.148.233.268.4.36.167.093.37.14.61.14.333,0,.605-.047.815-.14.21-.093.395-.28.555-.561h.02c.02.094.042.189.065.285.023.098.058.188.105.275h1.32c-.067-.16-.112-.311-.135-.45-.023-.14-.035-.337-.035-.59v-2.83c0-.24-.025-.462-.075-.665s-.145-.378-.285-.525c-.14-.147-.338-.26-.595-.34-.257-.08-.588-.12-.995-.12-.26,0-.505.028-.735.085-.23.058-.43.15-.6.28s-.305.302-.405.516c-.1.213-.15.473-.15.779v.13h1.24ZM76.418,56.693h1.44v-2.85h.77c.34,0,.65-.044.93-.131s.518-.217.715-.39c.197-.173.35-.395.46-.665.11-.269.165-.592.165-.965,0-.267-.033-.528-.1-.785-.067-.257-.177-.485-.33-.685-.153-.2-.355-.362-.605-.485-.25-.123-.558-.185-.925-.185h-2.52v7.14ZM77.858,50.613h.6c.36,0,.617.093.77.28.153.186.23.46.23.819,0,.367-.088.638-.265.811-.177.173-.408.26-.695.26h-.64v-2.17Z" fill="#00549f"/>
      <path d="M119.325,45.354h1.38v-7.14h-1.38v7.14ZM116.967,43.724c0,.153-.027.282-.08.385-.054.103-.122.188-.205.255-.084.067-.175.115-.275.145-.1.03-.197.045-.29.045-.187,0-.32-.073-.4-.22-.08-.147-.12-.323-.12-.53,0-.24.06-.43.18-.57.12-.14.32-.24.6-.3.086-.02.183-.052.29-.095.106-.043.206-.102.3-.175v1.06ZM115.686,41.624v-.15c0-.213.053-.383.16-.51.106-.127.266-.19.48-.19.233,0,.398.058.495.175.096.117.145.278.145.485,0,.18-.04.317-.12.41-.08.093-.224.167-.43.22l-.78.21c-.24.067-.445.143-.615.23-.17.087-.31.195-.42.325-.11.13-.192.287-.245.47-.054.183-.08.402-.08.655,0,.18.023.362.07.545.046.183.12.348.22.495.1.147.233.267.4.36.166.093.37.14.61.14.333,0,.605-.047.815-.14.21-.093.395-.28.555-.56h.02c.02.093.041.188.065.285.023.097.058.188.105.275h1.32c-.067-.16-.112-.31-.135-.45-.024-.14-.035-.337-.035-.59v-2.83c0-.24-.025-.462-.075-.665-.05-.203-.145-.378-.285-.525-.14-.147-.339-.26-.595-.34-.257-.08-.589-.12-.995-.12-.26,0-.505.028-.735.085-.23.057-.43.15-.6.28-.17.13-.305.302-.405.515-.1.213-.15.473-.15.78v.13h1.24ZM113.655,41.914c0-.64-.162-1.147-.485-1.52-.324-.373-.805-.56-1.445-.56-.32,0-.614.043-.88.13-.267.087-.497.238-.69.455-.194.217-.344.507-.45.87-.107.363-.16.822-.16,1.375,0,.54.043.992.13,1.355.086.363.215.653.385.87.17.217.383.372.64.465.256.093.558.14.905.14.733,0,1.258-.19,1.575-.57.316-.38.475-.923.475-1.63h-1.32c0,.44-.054.76-.16.96-.107.2-.277.3-.51.3-.154,0-.279-.035-.375-.105-.097-.07-.172-.182-.225-.335-.054-.153-.09-.348-.11-.585-.02-.237-.03-.522-.03-.855,0-.307.01-.577.03-.81s.056-.425.11-.575c.053-.15.131-.263.235-.34.103-.077.241-.115.415-.115.126,0,.231.032.315.095.083.063.146.147.19.25.043.103.073.22.09.35.016.13.025.258.025.385h1.32ZM107.326,45.354h1.38v-5.38h-1.38v5.38ZM107.326,39.314h1.38v-1.18h-1.38v1.18ZM104.485,39.974h-.7v.94h.7v3.08c0,.273.016.5.05.68.033.18.095.325.185.435.09.11.218.188.385.235.166.047.386.07.66.07.16,0,.311-.007.455-.02.143-.013.291-.027.445-.04v-.96c-.047.007-.097.012-.15.015-.054.003-.107.005-.16.005-.2,0-.332-.045-.395-.135-.064-.09-.095-.242-.095-.455v-2.91h.8v-.94h-.8v-1.54h-1.38v1.54ZM100.624,42.054v-.21c0-.127.011-.253.035-.38.023-.127.061-.242.115-.345.053-.103.125-.187.215-.25.09-.063.205-.095.345-.095s.255.028.345.085c.09.057.16.14.21.25.05.11.085.243.105.4.02.157.033.338.04.545h-1.41ZM103.354,42.874v-.31c0-.413-.027-.788-.08-1.125-.054-.337-.154-.623-.3-.86-.147-.237-.349-.42-.605-.55-.257-.13-.585-.195-.985-.195-.467,0-.84.077-1.12.23-.28.153-.495.36-.645.62-.15.26-.25.557-.3.89-.05.333-.075.68-.075,1.04,0,.333.015.672.045,1.015.03.343.111.653.245.93.133.277.34.502.62.675.28.173.67.26,1.17.26.66,0,1.143-.168,1.45-.505.306-.337.473-.818.5-1.445h-1.24c-.04.34-.114.593-.22.76-.107.167-.277.25-.51.25-.127,0-.234-.035-.32-.105-.087-.07-.157-.163-.21-.28-.054-.117-.092-.25-.115-.4-.024-.15-.035-.305-.035-.465v-.43h2.73ZM95.964,45.354h1.38v-3.23c0-.18.03-.332.09-.455.06-.123.14-.223.24-.3.1-.077.21-.132.33-.165.12-.033.24-.05.36-.05.073,0,.145.002.215.005s.141.008.215.015v-1.32c-.04-.007-.082-.012-.125-.015-.044-.003-.085-.005-.125-.005-.287,0-.53.078-.73.235-.2.157-.37.365-.51.625h-.02v-.72h-1.32v5.38ZM92.32,41.904c.013-.233.045-.433.095-.6.05-.167.123-.297.22-.39.096-.093.231-.14.405-.14.28,0,.473.147.58.44.106.293.16.777.16,1.45s-.054,1.157-.16,1.45c-.107.293-.3.44-.58.44-.174,0-.309-.047-.405-.14-.097-.093-.17-.223-.22-.39-.05-.167-.082-.367-.095-.6-.013-.233-.02-.487-.02-.76s.007-.527.02-.76M91.02,43.904c.067.353.18.65.34.89.16.24.376.418.65.535.273.117.616.172,1.03.165.393,0,.725-.062.995-.185.27-.123.488-.303.655-.54.166-.237.286-.532.36-.885.073-.353.11-.76.11-1.22,0-.467-.034-.878-.1-1.235-.067-.357-.18-.655-.34-.895-.16-.24-.377-.418-.65-.535-.274-.117-.617-.172-1.03-.165-.394,0-.725.062-.995.185-.27.123-.488.303-.655.54-.167.237-.287.532-.36.885-.074.353-.11.76-.11,1.22,0,.473.033.887.1,1.24M87.551,42.054v-.21c0-.127.012-.253.035-.38.023-.127.062-.242.115-.345.053-.103.125-.187.215-.25.09-.063.205-.095.345-.095s.255.028.345.085c.09.057.16.14.21.25.05.11.085.243.105.4.02.157.033.338.04.545h-1.41ZM90.281,42.874v-.31c0-.413-.027-.788-.08-1.125-.053-.337-.153-.623-.3-.86-.147-.237-.348-.42-.605-.55-.257-.13-.585-.195-.985-.195-.467,0-.84.077-1.12.23-.28.153-.495.36-.645.62-.15.26-.25.557-.3.89s-.075.68-.075,1.04c0,.333.015.672.045,1.015.03.343.112.653.245.93.133.277.34.502.62.675.28.173.67.26,1.17.26.66,0,1.143-.168,1.45-.505.307-.337.473-.818.5-1.445h-1.24c-.04.34-.113.593-.22.76-.107.167-.277.25-.51.25-.127,0-.233-.035-.32-.105-.087-.07-.157-.163-.21-.28-.053-.117-.092-.25-.115-.4-.023-.15-.035-.305-.035-.465v-.43h2.73ZM81.284,45.354h1.38v-3.57c0-.593.243-.89.73-.89.207,0,.357.055.45.165.093.11.14.305.14.585v3.71h1.38v-3.99c0-.54-.118-.93-.355-1.17-.237-.24-.575-.36-1.015-.36-.607,0-1.043.23-1.31.69h-.02v-2.31h-1.38v7.14ZM76.039,38.214v1.18h1.56v5.96h1.44v-5.96h1.56v-1.18h-4.56Z" fill="#00549f"/>
      <path d="M120.408,34.016h1.38v-3.23c0-.18.03-.331.09-.455.06-.123.14-.223.24-.3.1-.076.21-.131.33-.165.12-.033.24-.05.36-.05.073,0,.145.002.215.005.07.004.141.009.215.015v-1.32c-.04-.006-.082-.011-.125-.015-.044-.003-.085-.005-.125-.005-.287,0-.53.079-.73.235-.2.157-.37.365-.51.625h-.02v-.72h-1.32v5.38ZM116.763,30.565c.013-.233.045-.433.095-.6.05-.166.123-.296.22-.39.096-.093.231-.14.405-.14.28,0,.473.147.58.44.106.294.16.777.16,1.45s-.054,1.157-.16,1.45c-.107.294-.3.44-.58.44-.174,0-.309-.046-.405-.14-.097-.093-.17-.223-.22-.39-.05-.166-.082-.366-.095-.6-.014-.233-.02-.486-.02-.76s.006-.526.02-.76M115.463,32.565c.066.354.18.65.34.89.16.24.376.419.65.535.273.117.616.172,1.03.165.393,0,.725-.062.995-.185.27-.123.488-.303.655-.54.166-.236.286-.531.36-.885.073-.353.11-.76.11-1.22,0-.466-.034-.878-.1-1.235-.067-.356-.18-.655-.34-.895-.16-.24-.377-.418-.65-.535-.274-.116-.617-.171-1.03-.165-.394,0-.725.062-.995.185-.27.124-.489.304-.655.54-.167.237-.287.532-.36.885-.074.354-.11.76-.11,1.22,0,.474.033.887.1,1.24M112.787,34.016h1.38v-4.44h.8v-.94h-.8v-.47c0-.153.04-.263.12-.33.08-.066.216-.1.41-.1h.13c.06,0,.106.004.14.01v-.98c-.254-.02-.5-.03-.74-.03-.22,0-.42.022-.6.065-.18.044-.332.115-.455.215-.124.1-.219.234-.285.4-.067.167-.1.37-.1.61v.61h-.7v.94h.7v4.44ZM106.637,30.715v-.21c0-.126.012-.253.035-.38.023-.126.062-.241.115-.345.053-.103.125-.186.215-.25.09-.063.205-.095.345-.095s.255.029.345.085c.09.057.16.14.21.25.05.11.085.244.105.4.02.157.033.339.04.545h-1.41ZM109.367,31.536v-.31c0-.413-.027-.788-.08-1.125-.053-.336-.153-.623-.3-.86-.147-.236-.348-.42-.605-.55-.257-.13-.585-.195-.985-.195-.467,0-.84.077-1.12.23-.28.154-.495.36-.645.62-.15.26-.25.557-.3.89-.05.334-.075.68-.075,1.04,0,.334.015.672.045,1.015.03.344.112.654.245.93.133.277.34.502.62.675.28.173.67.26,1.17.26.66,0,1.143-.168,1.45-.505.307-.336.473-.818.5-1.445h-1.24c-.04.34-.113.594-.22.76-.107.167-.277.25-.51.25-.127,0-.233-.035-.32-.105-.087-.07-.157-.163-.21-.28-.053-.116-.092-.25-.115-.4-.023-.15-.035-.305-.035-.465v-.43h2.73ZM102.667,28.635h-.7v.94h.7v3.08c0,.274.017.5.05.68.033.18.095.325.185.435.09.11.218.189.385.235.167.047.387.07.66.07.16,0,.312-.007.455-.02.143-.013.292-.027.445-.04v-.96c-.047.007-.097.012-.15.015-.053.004-.107.005-.16.005-.2,0-.332-.045-.395-.135-.063-.09-.095-.241-.095-.455v-2.91h.8v-.94h-.8v-1.54h-1.38v1.54ZM100.031,34.016h1.32v-5.38h-1.38v3.57c0,.594-.243.89-.73.89-.207,0-.357-.055-.45-.165-.093-.11-.14-.305-.14-.585v-3.71h-1.38v3.99c0,.54.118.93.355,1.17.237.24.575.36,1.015.36.3,0,.567-.062.8-.185.233-.123.423-.318.57-.585h.02v.63ZM94.5,28.635h-.7v.94h.7v3.08c0,.274.017.5.05.68.033.18.095.325.185.435.09.11.218.189.385.235.167.047.387.07.66.07.16,0,.312-.007.455-.02.143-.013.292-.027.445-.04v-.96c-.047.007-.097.012-.15.015-.053.004-.107.005-.16.005-.2,0-.332-.045-.395-.135-.063-.09-.095-.241-.095-.455v-2.91h.8v-.94h-.8v-1.54h-1.38v1.54ZM91.778,34.016h1.38v-5.38h-1.38v5.38ZM91.778,27.976h1.38v-1.18h-1.38v1.18ZM88.938,28.635h-.7v.94h.7v3.08c0,.274.017.5.05.68.034.18.095.325.185.435.09.11.219.189.385.235.167.047.387.07.66.07.16,0,.312-.007.455-.02.144-.013.292-.027.445-.04v-.96c-.046.007-.096.012-.15.015-.053.004-.106.005-.16.005-.2,0-.331-.045-.395-.135-.063-.09-.095-.241-.095-.455v-2.91h.8v-.94h-.8v-1.54h-1.38v1.54ZM83.835,32.255v.19c0,.26.03.495.09.705.06.21.165.39.315.54.15.15.351.265.605.345.253.08.576.12.97.12.286,0,.553-.035.8-.105.246-.07.458-.175.635-.315.176-.14.315-.316.415-.53.1-.213.15-.46.15-.74,0-.406-.09-.728-.27-.965-.18-.236-.487-.428-.92-.575l-.83-.28c-.234-.073-.392-.163-.475-.27-.084-.106-.125-.226-.125-.36,0-.193.065-.338.195-.435.13-.096.281-.145.455-.145.226,0,.385.065.475.195.09.13.135.335.135.615h1.24v-.22c0-.486-.15-.863-.45-1.13-.3-.266-.764-.4-1.39-.4-.354,0-.655.044-.905.13-.25.087-.455.204-.615.35-.16.147-.277.319-.35.515-.074.197-.11.405-.11.625,0,.38.096.692.29.935.193.244.48.432.86.565l.97.35c.133.054.25.125.35.215.1.09.15.222.15.395,0,.214-.064.374-.19.48-.127.107-.297.16-.51.16-.234,0-.412-.071-.535-.215-.124-.143-.185-.331-.185-.565v-.18h-1.24ZM78.989,34.016h1.38v-3.57c0-.593.243-.89.73-.89.206,0,.356.055.45.165.093.11.14.305.14.585v3.71h1.38v-3.99c0-.54-.119-.93-.355-1.17-.237-.24-.575-.36-1.015-.36-.3,0-.567.062-.8.185-.234.124-.424.319-.57.585h-.02v-.63h-1.32v5.38ZM77.929,26.876h-1.44v7.14h1.44v-7.14Z" fill="#00549f"/>
    </g>
  </g>
</svg>